<svg width="40" height="40" viewBox="0 0 40 40" fill="none" xmlns="http://www.w3.org/2000/svg">
<path d="M30.8325 19.1675C28.0825 19.1675 25.8325 21.4175 25.8325 24.1675C25.8325 26.9175 28.0825 29.1675 30.8325 29.1675C33.5825 29.1675 35.8325 26.9175 35.8325 24.1675C35.8325 21.4175 33.5825 19.1675 30.8325 19.1675Z" fill="#3030FF"/>
<path d="M35.4175 31.6675H26.25C23.7175 31.6675 21.6675 33.7175 21.6675 36.25V38.75C21.6675 39.4325 22.235 40 22.9175 40H38.75C39.4325 40 40 39.4325 40 38.75V36.25C40 33.7175 37.95 31.6675 35.4175 31.6675Z" fill="#3030FF"/>
<path d="M6.66746 25C4.83496 25 3.33496 26.5 3.33496 28.3325C3.33496 30.165 4.83496 31.665 6.66746 31.665C8.49996 31.665 9.99996 30.165 9.99996 28.3325C9.99996 26.5 8.49996 25 6.66746 25Z" fill="#3030FF"/>
<path d="M8.75 33.3325H4.5825C2.05 33.3325 0 35.3825 0 37.9175V38.75C0 39.4325 0.5675 40 1.25 40H12.0825C12.765 40 13.3325 39.4325 13.3325 38.75V37.9175C13.3325 35.3825 11.2825 33.3325 8.75 33.3325Z" fill="#3030FF"/>
<path d="M18.75 25C18.34 25 17.9325 24.8475 17.62 24.5575L12.6825 20H3.3325C1.495 20 0 18.505 0 16.6675V3.3325C0 1.495 1.495 0 3.3325 0H23.3325C25.17 0 26.665 1.495 26.665 3.3325V16.665C26.665 18.5025 25.17 19.9975 23.3325 19.9975H20.415V23.33C20.415 23.9925 20.0225 24.5925 19.4175 24.8575C19.205 24.955 18.975 25 18.75 25ZM3.3325 3.3325V16.665H13.3325C13.75 16.665 14.155 16.8225 14.4625 17.1075L17.0825 19.525V18.3325C17.0825 17.4125 17.8275 16.665 18.75 16.665H23.3325V3.3325H3.3325Z" fill="#3030FF"/>
<path d="M16.7509 12C16.5784 12 16.4045 11.9415 16.262 11.82C15.9471 11.55 15.9111 11.0775 16.181 10.7625L17.2623 9.49948L16.181 8.23796C15.9111 7.92296 15.9471 7.45046 16.262 7.18045C16.5769 6.91195 17.0493 6.94645 17.3193 7.26146L18.8189 9.01197C19.0604 9.29397 19.0604 9.70798 18.8189 9.98848L17.3193 11.739C17.1723 11.91 16.9623 12 16.7509 12Z" fill="#3030FF" fill-opacity="0.2"/>
<path d="M9.25061 12C9.03916 12 8.8292 11.9115 8.68074 11.739L7.18108 9.98873C6.93964 9.70676 6.93964 9.29281 7.18108 9.01234L8.68074 7.26204C8.95068 6.94707 9.42307 6.91108 9.73799 7.18104C10.0529 7.45101 10.0889 7.92346 9.81898 8.23843L8.73773 9.49978L9.81898 10.7611C10.0889 11.0761 10.0529 11.5486 9.73799 11.8185C9.59703 11.94 9.42307 12 9.25061 12Z" fill="#3030FF" fill-opacity="0.2"/>
<path d="M12.6668 12.9949C12.2555 12.9407 11.9583 12.5084 12.0048 12.0288L12.5047 6.77851C12.5497 6.29897 12.9189 5.9542 13.3332 6.00496C13.7445 6.05921 14.0417 6.49149 13.9952 6.97102L13.4953 12.2214C13.4518 12.6869 13.0946 13.0474 12.6668 12.9949Z" fill="#3030FF" fill-opacity="0.2"/>
</svg>
