<svg width="40" height="40" viewBox="0 0 40 40" fill="none" xmlns="http://www.w3.org/2000/svg">
<g opacity="0.2">
<path d="M25.9691 14.8469C25.2966 14.6739 24.8766 13.9233 25.0341 13.1726L27.5342 1.08161C27.6917 0.328185 28.3668 -0.13503 29.0343 0.0351875C29.7069 0.208195 30.1269 0.958828 29.9694 1.70946L27.4692 13.8005C27.3192 14.5316 26.6667 15.0199 25.9691 14.8469Z" fill="#3030FF"/>
<path d="M32.9197 13.0218C32.5771 13.0218 32.2371 12.8656 31.9896 12.5614C31.5271 11.9894 31.5696 11.1076 32.0821 10.5914L35.2173 7.44373L32.0821 4.2961C31.5696 3.77987 31.5271 2.89809 31.9896 2.32605C32.4546 1.754 33.2422 1.70936 33.7547 2.2228L37.9225 6.40847C38.185 6.67357 38.335 7.05028 38.335 7.44652C38.335 7.84277 38.185 8.21948 37.9225 8.48457L33.7547 12.6702C33.5172 12.9046 33.2172 13.0218 32.9197 13.0218Z" fill="#3030FF"/>
<path d="M22.0839 13.0219C21.7863 13.0219 21.4863 12.9047 21.2463 12.6648L17.0785 8.47909C16.816 8.214 16.666 7.83729 16.666 7.44104C16.666 7.0448 16.816 6.66809 17.0785 6.403L21.2463 2.21732C21.7588 1.70109 22.5489 1.74853 23.0114 2.32057C23.4739 2.89261 23.4314 3.77439 22.9189 4.29063L19.7837 7.43825L22.9189 10.5859C23.4314 11.1021 23.4739 11.9839 23.0114 12.5559C22.7664 12.8657 22.4264 13.0219 22.0839 13.0219Z" fill="#3030FF"/>
</g>
<path d="M0.820052 17.6763C0.365023 17.6847 0 18.0977 0 18.6055V35.8086C0 36.0654 0.187511 36.2747 0.417526 36.2747H4.37028C4.7428 36.2747 5.07032 35.9984 5.17283 35.5994L8.86056 21.0918C9.09807 20.1542 8.64804 19.1692 7.82799 18.8371C6.3179 18.2232 4.00025 17.6177 0.820052 17.6763Z" fill="#3030FF"/>
<path d="M36.6698 27.9035C33.3371 27.9035 26.6691 32.6137 23.3364 32.6137C20.0037 32.6137 16.251 29.7647 16.251 29.7647C16.251 29.7647 20.7413 30.6939 23.3339 30.6939C25.9266 30.6939 26.6667 29.7061 26.6667 28.3695C26.6667 25.113 21.7113 24.6079 19.2062 24.1838C16.746 22.6546 15.4684 21.4464 11.3932 21.0613C11.3682 21.3264 11.3307 21.5887 11.2657 21.8538L7.91797 35.0247C11.7107 36.9501 18.2386 40.0001 21.6663 40.0001C26.6667 40.0001 40 32.5579 40 30.6995C40 28.841 38.3349 27.9035 36.6698 27.9035Z" fill="#3030FF"/>
</svg>
