<svg width="40" height="40" viewBox="0 0 40 40" fill="none" xmlns="http://www.w3.org/2000/svg">
<path d="M20 3.3325C29.19 3.3325 36.6675 10.81 36.6675 20C36.6675 29.19 29.19 36.6675 20 36.6675C10.81 36.6675 3.3325 29.19 3.3325 20C3.3325 10.81 10.81 3.3325 20 3.3325ZM20 0C8.9675 0 0 8.9675 0 20C0 31.0325 8.9675 40 20 40C31.0325 40 40 31.0325 40 20C40 8.9675 31.0325 0 20 0Z" fill="#3030FF"/>
<g opacity="0.2">
<path d="M13.2675 23.8176C13.9175 24.4676 13.9175 25.5351 13.2675 26.1851C12.935 26.5026 12.5175 26.6676 12.085 26.6676C11.6525 26.6676 11.235 26.5001 10.9025 26.1851L5.90254 21.1851C5.25254 20.5351 5.25254 19.4676 5.90254 18.8176L10.9025 13.8176C11.5525 13.1676 12.62 13.1676 13.27 13.8176C13.92 14.4676 13.92 15.5351 13.27 16.1851L9.43254 20.0001L13.2675 23.8176Z" fill="#3030FF"/>
<path d="M23.6827 13.3825L19.5152 27.55C19.2377 28.4925 18.2352 28.945 17.4477 28.6825C16.5652 28.415 16.0477 27.5 16.3152 26.615L20.4827 12.4475C20.7502 11.565 21.6652 11.065 22.5502 11.315C23.4327 11.5825 23.9502 12.5 23.6827 13.3825Z" fill="#3030FF"/>
<path d="M34.1001 21.1824L29.1001 26.1824C28.7676 26.4999 28.3501 26.6649 27.9176 26.6649C27.4851 26.6649 27.0676 26.4974 26.7351 26.1824C26.0851 25.5324 26.0851 24.4649 26.7351 23.8149L30.5676 19.9999L26.7351 16.1824C26.0851 15.5324 26.0851 14.4649 26.7351 13.8149C27.3851 13.1649 28.4526 13.1649 29.1026 13.8149L34.1026 18.8149C34.7501 19.4674 34.7501 20.5324 34.1001 21.1824Z" fill="#3030FF"/>
</g>
</svg>
