<svg width="715" height="738" viewBox="0 0 715 738" fill="none" xmlns="http://www.w3.org/2000/svg">
<rect x="1" y="1" width="713" height="657" rx="19" fill="white" stroke="#3030FF" stroke-width="2"/>
<line x1="8.74228e-08" y1="54" x2="715" y2="54.0001" stroke="#3030FF" stroke-width="2"/>
<circle cx="28.5" cy="27.5" r="8.5" fill="#3030FF" fill-opacity="0.8"/>
<circle opacity="0.6" cx="54.5" cy="27.5" r="8.5" fill="#3030FF"/>
<circle opacity="0.4" cx="80.5" cy="27.5" r="8.5" fill="#3030FF"/>
<rect x="20" y="103" width="531" height="42" fill="#3030FF" fill-opacity="0.2"/>
<rect x="20" y="169" width="287" height="42" fill="#3030FF" fill-opacity="0.2"/>
<rect x="20" y="344" width="203" height="24" rx="12" fill="#3030FF" fill-opacity="0.2"/>
<rect x="20" y="388" width="134" height="14" fill="#3030FF" fill-opacity="0.2"/>
<rect x="20" y="418" width="118" height="14" fill="#3030FF" fill-opacity="0.2"/>
<rect x="20" y="448" width="77" height="14" fill="#3030FF" fill-opacity="0.2"/>
<rect x="20" y="478" width="190" height="14" fill="#3030FF" fill-opacity="0.2"/>
<rect x="28" y="269" width="244" height="26" fill="#3030FF" fill-opacity="0.2"/>
<rect x="21" y="262" width="258" height="40" stroke="#3030FF" stroke-opacity="0.2" stroke-width="2"/>
<g opacity="0.8">
<path fill-rule="evenodd" clip-rule="evenodd" d="M236.229 20C236.229 19.4477 235.781 19 235.229 19H232.714C231.768 19 231 19.7611 231 20.7V34.3C231 35.2389 231.768 36 232.714 36H241.286C242.232 36 243 35.2389 243 34.3V26.715C243 26.1627 242.552 25.715 242 25.715H238.714C237.341 25.715 236.229 24.6114 236.229 23.25V20ZM234.857 28.435C234.431 28.435 234.086 28.7775 234.086 29.2C234.086 29.6225 234.431 29.965 234.857 29.965H237C237.426 29.965 237.771 29.6225 237.771 29.2C237.771 28.7775 237.426 28.435 237 28.435H234.857ZM234.857 31.41C234.431 31.41 234.086 31.7525 234.086 32.175C234.086 32.5975 234.431 32.94 234.857 32.94H239.143C239.569 32.94 239.914 32.5975 239.914 32.175C239.914 31.7525 239.569 31.41 239.143 31.41H234.857Z" fill="#3030FF"/>
<path d="M241.014 24.185C241.461 24.185 241.683 23.6443 241.366 23.33L238.623 20.61C238.308 20.297 237.771 20.5206 237.771 20.965V23.25C237.771 23.7664 238.194 24.185 238.714 24.185H241.014Z" fill="#3030FF"/>
</g>
<path opacity="0.8" d="M256.594 27.9766H251.82V33H250.32V21.625H257.367V22.8594H251.82V26.75H256.594V27.9766ZM262.273 33.1562C261.128 33.1562 260.195 32.7812 259.477 32.0312C258.758 31.276 258.398 30.2682 258.398 29.0078V28.7422C258.398 27.9036 258.557 27.1562 258.875 26.5C259.198 25.8385 259.646 25.3229 260.219 24.9531C260.797 24.5781 261.422 24.3906 262.094 24.3906C263.193 24.3906 264.047 24.7526 264.656 25.4766C265.266 26.2005 265.57 27.237 265.57 28.5859V29.1875H259.844C259.865 30.0208 260.107 30.6953 260.57 31.2109C261.039 31.7214 261.633 31.9766 262.352 31.9766C262.862 31.9766 263.294 31.8724 263.648 31.6641C264.003 31.4557 264.312 31.1797 264.578 30.8359L265.461 31.5234C264.753 32.612 263.69 33.1562 262.273 33.1562ZM262.094 25.5781C261.51 25.5781 261.021 25.7917 260.625 26.2188C260.229 26.6406 259.984 27.2344 259.891 28H264.125V27.8906C264.083 27.1562 263.885 26.5885 263.531 26.1875C263.177 25.7812 262.698 25.5781 262.094 25.5781ZM270.758 33.1562C269.612 33.1562 268.68 32.7812 267.961 32.0312C267.242 31.276 266.883 30.2682 266.883 29.0078V28.7422C266.883 27.9036 267.042 27.1562 267.359 26.5C267.682 25.8385 268.13 25.3229 268.703 24.9531C269.281 24.5781 269.906 24.3906 270.578 24.3906C271.677 24.3906 272.531 24.7526 273.141 25.4766C273.75 26.2005 274.055 27.237 274.055 28.5859V29.1875H268.328C268.349 30.0208 268.591 30.6953 269.055 31.2109C269.523 31.7214 270.117 31.9766 270.836 31.9766C271.346 31.9766 271.779 31.8724 272.133 31.6641C272.487 31.4557 272.797 31.1797 273.062 30.8359L273.945 31.5234C273.237 32.612 272.174 33.1562 270.758 33.1562ZM270.578 25.5781C269.995 25.5781 269.505 25.7917 269.109 26.2188C268.714 26.6406 268.469 27.2344 268.375 28H272.609V27.8906C272.568 27.1562 272.37 26.5885 272.016 26.1875C271.661 25.7812 271.182 25.5781 270.578 25.5781ZM277.305 33H275.859V21H277.305V33ZM290.094 27.9766H285.32V33H283.82V21.625H290.867V22.8594H285.32V26.75H290.094V27.9766ZM296.32 25.8438C296.102 25.8073 295.865 25.7891 295.609 25.7891C294.661 25.7891 294.018 26.1927 293.68 27V33H292.234V24.5469H293.641L293.664 25.5234C294.138 24.7682 294.81 24.3906 295.68 24.3906C295.961 24.3906 296.174 24.4271 296.32 24.5V25.8438ZM301.008 33.1562C299.862 33.1562 298.93 32.7812 298.211 32.0312C297.492 31.276 297.133 30.2682 297.133 29.0078V28.7422C297.133 27.9036 297.292 27.1562 297.609 26.5C297.932 25.8385 298.38 25.3229 298.953 24.9531C299.531 24.5781 300.156 24.3906 300.828 24.3906C301.927 24.3906 302.781 24.7526 303.391 25.4766C304 26.2005 304.305 27.237 304.305 28.5859V29.1875H298.578C298.599 30.0208 298.841 30.6953 299.305 31.2109C299.773 31.7214 300.367 31.9766 301.086 31.9766C301.596 31.9766 302.029 31.8724 302.383 31.6641C302.737 31.4557 303.047 31.1797 303.312 30.8359L304.195 31.5234C303.487 32.612 302.424 33.1562 301.008 33.1562ZM300.828 25.5781C300.245 25.5781 299.755 25.7917 299.359 26.2188C298.964 26.6406 298.719 27.2344 298.625 28H302.859V27.8906C302.818 27.1562 302.62 26.5885 302.266 26.1875C301.911 25.7812 301.432 25.5781 300.828 25.5781ZM309.492 33.1562C308.346 33.1562 307.414 32.7812 306.695 32.0312C305.977 31.276 305.617 30.2682 305.617 29.0078V28.7422C305.617 27.9036 305.776 27.1562 306.094 26.5C306.417 25.8385 306.865 25.3229 307.438 24.9531C308.016 24.5781 308.641 24.3906 309.312 24.3906C310.411 24.3906 311.266 24.7526 311.875 25.4766C312.484 26.2005 312.789 27.237 312.789 28.5859V29.1875H307.062C307.083 30.0208 307.326 30.6953 307.789 31.2109C308.258 31.7214 308.852 31.9766 309.57 31.9766C310.081 31.9766 310.513 31.8724 310.867 31.6641C311.221 31.4557 311.531 31.1797 311.797 30.8359L312.68 31.5234C311.971 32.612 310.909 33.1562 309.492 33.1562ZM309.312 25.5781C308.729 25.5781 308.24 25.7917 307.844 26.2188C307.448 26.6406 307.203 27.2344 307.109 28H311.344V27.8906C311.302 27.1562 311.104 26.5885 310.75 26.1875C310.396 25.7812 309.917 25.5781 309.312 25.5781ZM320.398 22.5V24.5469H321.977V25.6641H320.398V30.9062C320.398 31.2448 320.469 31.5 320.609 31.6719C320.75 31.8385 320.99 31.9219 321.328 31.9219C321.495 31.9219 321.724 31.8906 322.016 31.8281V33C321.635 33.1042 321.266 33.1562 320.906 33.1562C320.26 33.1562 319.773 32.9609 319.445 32.5703C319.117 32.1797 318.953 31.625 318.953 30.9062V25.6641H317.414V24.5469H318.953V22.5H320.398ZM323.133 28.6953C323.133 27.8672 323.294 27.1224 323.617 26.4609C323.945 25.7995 324.398 25.2891 324.977 24.9297C325.56 24.5703 326.224 24.3906 326.969 24.3906C328.12 24.3906 329.049 24.7891 329.758 25.5859C330.471 26.3828 330.828 27.4427 330.828 28.7656V28.8672C330.828 29.6901 330.669 30.4297 330.352 31.0859C330.039 31.737 329.589 32.2448 329 32.6094C328.417 32.974 327.745 33.1562 326.984 33.1562C325.839 33.1562 324.909 32.7578 324.195 31.9609C323.487 31.1641 323.133 30.1094 323.133 28.7969V28.6953ZM324.586 28.8672C324.586 29.8047 324.802 30.5573 325.234 31.125C325.672 31.6927 326.255 31.9766 326.984 31.9766C327.719 31.9766 328.302 31.6901 328.734 31.1172C329.167 30.5391 329.383 29.7318 329.383 28.6953C329.383 27.7682 329.161 27.0182 328.719 26.4453C328.281 25.8672 327.698 25.5781 326.969 25.5781C326.255 25.5781 325.68 25.862 325.242 26.4297C324.805 26.9974 324.586 27.8099 324.586 28.8672ZM341.828 32.1641C341.266 32.8255 340.44 33.1562 339.352 33.1562C338.451 33.1562 337.763 32.8958 337.289 32.375C336.82 31.849 336.583 31.0729 336.578 30.0469V24.5469H338.023V30.0078C338.023 31.2891 338.544 31.9297 339.586 31.9297C340.69 31.9297 341.424 31.5182 341.789 30.6953V24.5469H343.234V33H341.859L341.828 32.1641ZM350.359 30.7578C350.359 30.3672 350.211 30.0651 349.914 29.8516C349.622 29.6328 349.109 29.4453 348.375 29.2891C347.646 29.1328 347.065 28.9453 346.633 28.7266C346.206 28.5078 345.888 28.2474 345.68 27.9453C345.477 27.6432 345.375 27.2839 345.375 26.8672C345.375 26.1745 345.667 25.5885 346.25 25.1094C346.839 24.6302 347.589 24.3906 348.5 24.3906C349.458 24.3906 350.234 24.638 350.828 25.1328C351.427 25.6276 351.727 26.2604 351.727 27.0312H350.273C350.273 26.6354 350.104 26.2943 349.766 26.0078C349.432 25.7214 349.01 25.5781 348.5 25.5781C347.974 25.5781 347.562 25.6927 347.266 25.9219C346.969 26.151 346.82 26.4505 346.82 26.8203C346.82 27.1693 346.958 27.4323 347.234 27.6094C347.51 27.7865 348.008 27.9557 348.727 28.1172C349.451 28.2786 350.036 28.4714 350.484 28.6953C350.932 28.9193 351.263 29.1901 351.477 29.5078C351.695 29.8203 351.805 30.2031 351.805 30.6562C351.805 31.4115 351.503 32.0182 350.898 32.4766C350.294 32.9297 349.51 33.1562 348.547 33.1562C347.87 33.1562 347.271 33.0365 346.75 32.7969C346.229 32.5573 345.82 32.224 345.523 31.7969C345.232 31.3646 345.086 30.8984 345.086 30.3984H346.531C346.557 30.8828 346.75 31.2682 347.109 31.5547C347.474 31.8359 347.953 31.9766 348.547 31.9766C349.094 31.9766 349.531 31.8672 349.859 31.6484C350.193 31.4245 350.359 31.1276 350.359 30.7578ZM357.195 33.1562C356.049 33.1562 355.117 32.7812 354.398 32.0312C353.68 31.276 353.32 30.2682 353.32 29.0078V28.7422C353.32 27.9036 353.479 27.1562 353.797 26.5C354.12 25.8385 354.568 25.3229 355.141 24.9531C355.719 24.5781 356.344 24.3906 357.016 24.3906C358.115 24.3906 358.969 24.7526 359.578 25.4766C360.188 26.2005 360.492 27.237 360.492 28.5859V29.1875H354.766C354.786 30.0208 355.029 30.6953 355.492 31.2109C355.961 31.7214 356.555 31.9766 357.273 31.9766C357.784 31.9766 358.216 31.8724 358.57 31.6641C358.924 31.4557 359.234 31.1797 359.5 30.8359L360.383 31.5234C359.674 32.612 358.612 33.1562 357.195 33.1562ZM357.016 25.5781C356.432 25.5781 355.943 25.7917 355.547 26.2188C355.151 26.6406 354.906 27.2344 354.812 28H359.047V27.8906C359.005 27.1562 358.807 26.5885 358.453 26.1875C358.099 25.7812 357.62 25.5781 357.016 25.5781ZM371.062 30.7578C371.062 30.3672 370.914 30.0651 370.617 29.8516C370.326 29.6328 369.812 29.4453 369.078 29.2891C368.349 29.1328 367.768 28.9453 367.336 28.7266C366.909 28.5078 366.591 28.2474 366.383 27.9453C366.18 27.6432 366.078 27.2839 366.078 26.8672C366.078 26.1745 366.37 25.5885 366.953 25.1094C367.542 24.6302 368.292 24.3906 369.203 24.3906C370.161 24.3906 370.938 24.638 371.531 25.1328C372.13 25.6276 372.43 26.2604 372.43 27.0312H370.977C370.977 26.6354 370.807 26.2943 370.469 26.0078C370.135 25.7214 369.714 25.5781 369.203 25.5781C368.677 25.5781 368.266 25.6927 367.969 25.9219C367.672 26.151 367.523 26.4505 367.523 26.8203C367.523 27.1693 367.661 27.4323 367.938 27.6094C368.214 27.7865 368.711 27.9557 369.43 28.1172C370.154 28.2786 370.74 28.4714 371.188 28.6953C371.635 28.9193 371.966 29.1901 372.18 29.5078C372.398 29.8203 372.508 30.2031 372.508 30.6562C372.508 31.4115 372.206 32.0182 371.602 32.4766C370.997 32.9297 370.214 33.1562 369.25 33.1562C368.573 33.1562 367.974 33.0365 367.453 32.7969C366.932 32.5573 366.523 32.224 366.227 31.7969C365.935 31.3646 365.789 30.8984 365.789 30.3984H367.234C367.26 30.8828 367.453 31.2682 367.812 31.5547C368.177 31.8359 368.656 31.9766 369.25 31.9766C369.797 31.9766 370.234 31.8672 370.562 31.6484C370.896 31.4245 371.062 31.1276 371.062 30.7578ZM377.898 33.1562C376.753 33.1562 375.82 32.7812 375.102 32.0312C374.383 31.276 374.023 30.2682 374.023 29.0078V28.7422C374.023 27.9036 374.182 27.1562 374.5 26.5C374.823 25.8385 375.271 25.3229 375.844 24.9531C376.422 24.5781 377.047 24.3906 377.719 24.3906C378.818 24.3906 379.672 24.7526 380.281 25.4766C380.891 26.2005 381.195 27.237 381.195 28.5859V29.1875H375.469C375.49 30.0208 375.732 30.6953 376.195 31.2109C376.664 31.7214 377.258 31.9766 377.977 31.9766C378.487 31.9766 378.919 31.8724 379.273 31.6641C379.628 31.4557 379.938 31.1797 380.203 30.8359L381.086 31.5234C380.378 32.612 379.315 33.1562 377.898 33.1562ZM377.719 25.5781C377.135 25.5781 376.646 25.7917 376.25 26.2188C375.854 26.6406 375.609 27.2344 375.516 28H379.75V27.8906C379.708 27.1562 379.51 26.5885 379.156 26.1875C378.802 25.7812 378.323 25.5781 377.719 25.5781ZM386.961 25.8438C386.742 25.8073 386.505 25.7891 386.25 25.7891C385.302 25.7891 384.659 26.1927 384.32 27V33H382.875V24.5469H384.281L384.305 25.5234C384.779 24.7682 385.451 24.3906 386.32 24.3906C386.602 24.3906 386.815 24.4271 386.961 24.5V25.8438ZM391.227 31.0391L393.32 24.5469H394.797L391.766 33H390.664L387.602 24.5469H389.078L391.227 31.0391ZM397.758 33H396.312V24.5469H397.758V33ZM396.195 22.3047C396.195 22.0703 396.266 21.8724 396.406 21.7109C396.552 21.5495 396.766 21.4688 397.047 21.4688C397.328 21.4688 397.542 21.5495 397.688 21.7109C397.833 21.8724 397.906 22.0703 397.906 22.3047C397.906 22.5391 397.833 22.7344 397.688 22.8906C397.542 23.0469 397.328 23.125 397.047 23.125C396.766 23.125 396.552 23.0469 396.406 22.8906C396.266 22.7344 396.195 22.5391 396.195 22.3047ZM403.469 31.9766C403.984 31.9766 404.435 31.8203 404.82 31.5078C405.206 31.1953 405.419 30.8047 405.461 30.3359H406.828C406.802 30.8203 406.635 31.2812 406.328 31.7188C406.021 32.1562 405.609 32.5052 405.094 32.7656C404.583 33.026 404.042 33.1562 403.469 33.1562C402.318 33.1562 401.401 32.7734 400.719 32.0078C400.042 31.237 399.703 30.1849 399.703 28.8516V28.6094C399.703 27.7865 399.854 27.0547 400.156 26.4141C400.458 25.7734 400.891 25.276 401.453 24.9219C402.021 24.5677 402.69 24.3906 403.461 24.3906C404.409 24.3906 405.195 24.6745 405.82 25.2422C406.451 25.8099 406.786 26.5469 406.828 27.4531H405.461C405.419 26.9062 405.211 26.4583 404.836 26.1094C404.466 25.7552 404.008 25.5781 403.461 25.5781C402.727 25.5781 402.156 25.8438 401.75 26.375C401.349 26.901 401.148 27.6641 401.148 28.6641V28.9375C401.148 29.9115 401.349 30.6615 401.75 31.1875C402.151 31.7135 402.724 31.9766 403.469 31.9766ZM411.961 33.1562C410.815 33.1562 409.883 32.7812 409.164 32.0312C408.445 31.276 408.086 30.2682 408.086 29.0078V28.7422C408.086 27.9036 408.245 27.1562 408.562 26.5C408.885 25.8385 409.333 25.3229 409.906 24.9531C410.484 24.5781 411.109 24.3906 411.781 24.3906C412.88 24.3906 413.734 24.7526 414.344 25.4766C414.953 26.2005 415.258 27.237 415.258 28.5859V29.1875H409.531C409.552 30.0208 409.794 30.6953 410.258 31.2109C410.727 31.7214 411.32 31.9766 412.039 31.9766C412.549 31.9766 412.982 31.8724 413.336 31.6641C413.69 31.4557 414 31.1797 414.266 30.8359L415.148 31.5234C414.44 32.612 413.378 33.1562 411.961 33.1562ZM411.781 25.5781C411.198 25.5781 410.708 25.7917 410.312 26.2188C409.917 26.6406 409.672 27.2344 409.578 28H413.812V27.8906C413.771 27.1562 413.573 26.5885 413.219 26.1875C412.865 25.7812 412.385 25.5781 411.781 25.5781ZM421.859 30.7578C421.859 30.3672 421.711 30.0651 421.414 29.8516C421.122 29.6328 420.609 29.4453 419.875 29.2891C419.146 29.1328 418.565 28.9453 418.133 28.7266C417.706 28.5078 417.388 28.2474 417.18 27.9453C416.977 27.6432 416.875 27.2839 416.875 26.8672C416.875 26.1745 417.167 25.5885 417.75 25.1094C418.339 24.6302 419.089 24.3906 420 24.3906C420.958 24.3906 421.734 24.638 422.328 25.1328C422.927 25.6276 423.227 26.2604 423.227 27.0312H421.773C421.773 26.6354 421.604 26.2943 421.266 26.0078C420.932 25.7214 420.51 25.5781 420 25.5781C419.474 25.5781 419.062 25.6927 418.766 25.9219C418.469 26.151 418.32 26.4505 418.32 26.8203C418.32 27.1693 418.458 27.4323 418.734 27.6094C419.01 27.7865 419.508 27.9557 420.227 28.1172C420.951 28.2786 421.536 28.4714 421.984 28.6953C422.432 28.9193 422.763 29.1901 422.977 29.5078C423.195 29.8203 423.305 30.2031 423.305 30.6562C423.305 31.4115 423.003 32.0182 422.398 32.4766C421.794 32.9297 421.01 33.1562 420.047 33.1562C419.37 33.1562 418.771 33.0365 418.25 32.7969C417.729 32.5573 417.32 32.224 417.023 31.7969C416.732 31.3646 416.586 30.8984 416.586 30.3984H418.031C418.057 30.8828 418.25 31.2682 418.609 31.5547C418.974 31.8359 419.453 31.9766 420.047 31.9766C420.594 31.9766 421.031 31.8672 421.359 31.6484C421.693 31.4245 421.859 31.1276 421.859 30.7578ZM429.867 33V25.6641H428.531V24.5469H429.867V23.6797C429.867 22.7734 430.109 22.0729 430.594 21.5781C431.078 21.0833 431.763 20.8359 432.648 20.8359C432.982 20.8359 433.312 20.8802 433.641 20.9688L433.562 22.1406C433.318 22.0938 433.057 22.0703 432.781 22.0703C432.312 22.0703 431.951 22.2083 431.695 22.4844C431.44 22.7552 431.312 23.1458 431.312 23.6562V24.5469H433.117V25.6641H431.312V33H429.867ZM438.805 25.8438C438.586 25.8073 438.349 25.7891 438.094 25.7891C437.146 25.7891 436.503 26.1927 436.164 27V33H434.719V24.5469H436.125L436.148 25.5234C436.622 24.7682 437.294 24.3906 438.164 24.3906C438.445 24.3906 438.659 24.4271 438.805 24.5V25.8438ZM439.602 28.6953C439.602 27.8672 439.763 27.1224 440.086 26.4609C440.414 25.7995 440.867 25.2891 441.445 24.9297C442.029 24.5703 442.693 24.3906 443.438 24.3906C444.589 24.3906 445.518 24.7891 446.227 25.5859C446.94 26.3828 447.297 27.4427 447.297 28.7656V28.8672C447.297 29.6901 447.138 30.4297 446.82 31.0859C446.508 31.737 446.057 32.2448 445.469 32.6094C444.885 32.974 444.214 33.1562 443.453 33.1562C442.307 33.1562 441.378 32.7578 440.664 31.9609C439.956 31.1641 439.602 30.1094 439.602 28.7969V28.6953ZM441.055 28.8672C441.055 29.8047 441.271 30.5573 441.703 31.125C442.141 31.6927 442.724 31.9766 443.453 31.9766C444.188 31.9766 444.771 31.6901 445.203 31.1172C445.635 30.5391 445.852 29.7318 445.852 28.6953C445.852 27.7682 445.63 27.0182 445.188 26.4453C444.75 25.8672 444.167 25.5781 443.438 25.5781C442.724 25.5781 442.148 25.862 441.711 26.4297C441.273 26.9974 441.055 27.8099 441.055 28.8672ZM450.469 24.5469L450.508 25.4844C451.128 24.7552 451.964 24.3906 453.016 24.3906C454.198 24.3906 455.003 24.8438 455.43 25.75C455.711 25.3438 456.076 25.0156 456.523 24.7656C456.977 24.5156 457.51 24.3906 458.125 24.3906C459.979 24.3906 460.922 25.3724 460.953 27.3359V33H459.508V27.4219C459.508 26.8177 459.37 26.3672 459.094 26.0703C458.818 25.7682 458.354 25.6172 457.703 25.6172C457.167 25.6172 456.721 25.7786 456.367 26.1016C456.013 26.4193 455.807 26.849 455.75 27.3906V33H454.297V27.4609C454.297 26.2318 453.695 25.6172 452.492 25.6172C451.544 25.6172 450.896 26.0208 450.547 26.8281V33H449.102V24.5469H450.469ZM472.328 32.1641C471.766 32.8255 470.94 33.1562 469.852 33.1562C468.951 33.1562 468.263 32.8958 467.789 32.375C467.32 31.849 467.083 31.0729 467.078 30.0469V24.5469H468.523V30.0078C468.523 31.2891 469.044 31.9297 470.086 31.9297C471.19 31.9297 471.924 31.5182 472.289 30.6953V24.5469H473.734V33H472.359L472.328 32.1641ZM480.859 30.7578C480.859 30.3672 480.711 30.0651 480.414 29.8516C480.122 29.6328 479.609 29.4453 478.875 29.2891C478.146 29.1328 477.565 28.9453 477.133 28.7266C476.706 28.5078 476.388 28.2474 476.18 27.9453C475.977 27.6432 475.875 27.2839 475.875 26.8672C475.875 26.1745 476.167 25.5885 476.75 25.1094C477.339 24.6302 478.089 24.3906 479 24.3906C479.958 24.3906 480.734 24.638 481.328 25.1328C481.927 25.6276 482.227 26.2604 482.227 27.0312H480.773C480.773 26.6354 480.604 26.2943 480.266 26.0078C479.932 25.7214 479.51 25.5781 479 25.5781C478.474 25.5781 478.062 25.6927 477.766 25.9219C477.469 26.151 477.32 26.4505 477.32 26.8203C477.32 27.1693 477.458 27.4323 477.734 27.6094C478.01 27.7865 478.508 27.9557 479.227 28.1172C479.951 28.2786 480.536 28.4714 480.984 28.6953C481.432 28.9193 481.763 29.1901 481.977 29.5078C482.195 29.8203 482.305 30.2031 482.305 30.6562C482.305 31.4115 482.003 32.0182 481.398 32.4766C480.794 32.9297 480.01 33.1562 479.047 33.1562C478.37 33.1562 477.771 33.0365 477.25 32.7969C476.729 32.5573 476.32 32.224 476.023 31.7969C475.732 31.3646 475.586 30.8984 475.586 30.3984H477.031C477.057 30.8828 477.25 31.2682 477.609 31.5547C477.974 31.8359 478.453 31.9766 479.047 31.9766C479.594 31.9766 480.031 31.8672 480.359 31.6484C480.693 31.4245 480.859 31.1276 480.859 30.7578Z" fill="#3030FF"/>
<mask id="path-17-inside-1" fill="white">
<path fill-rule="evenodd" clip-rule="evenodd" d="M626.787 336.235H629.682V392.699H626.787V692.089C626.787 698.118 625.6 704.088 623.294 709.659C620.987 715.229 617.607 720.29 613.345 724.553C609.083 728.816 604.024 732.198 598.456 734.505C592.888 736.812 586.92 738 580.893 738H412.894C406.867 738 400.899 736.812 395.331 734.505C389.763 732.198 384.704 728.816 380.442 724.553C376.18 720.29 372.8 715.229 370.493 709.659C368.187 704.088 367 698.118 367 692.089V256.911C367 250.882 368.187 244.912 370.493 239.341C372.8 233.771 376.18 228.71 380.442 224.447C384.704 220.184 389.763 216.802 395.331 214.495C400.899 212.187 406.867 211 412.894 211H580.893C586.92 211 592.888 212.187 598.456 214.495C604.024 216.802 609.083 220.184 613.345 224.447C617.607 228.71 620.987 233.771 623.294 239.341C625.6 244.912 626.787 250.882 626.787 256.911V336.235ZM617.42 691.491V257.523C617.419 248.444 613.797 239.736 607.349 233.316C600.901 226.896 592.157 223.289 583.038 223.288H561.037C562.048 225.758 562.434 228.438 562.16 231.091C561.887 233.744 560.962 236.29 559.467 238.503C557.973 240.717 555.955 242.531 553.59 243.785C551.226 245.039 548.589 245.694 545.91 245.694H449.346C446.667 245.694 444.029 245.038 441.665 243.785C439.301 242.531 437.283 240.717 435.788 238.503C434.294 236.29 433.369 233.744 433.095 231.091C432.821 228.438 433.207 225.758 434.218 223.288H413.67C404.552 223.289 395.807 226.896 389.359 233.316C382.912 239.737 379.289 248.444 379.288 257.523V691.491C379.287 700.573 382.908 709.283 389.356 715.705C395.804 722.128 404.55 725.737 413.67 725.738H583.038C592.159 725.737 600.905 722.128 607.353 715.705C613.8 709.283 617.422 700.573 617.42 691.491Z"/>
</mask>
<path fill-rule="evenodd" clip-rule="evenodd" d="M626.787 336.235H629.682V392.699H626.787V692.089C626.787 698.118 625.6 704.088 623.294 709.659C620.987 715.229 617.607 720.29 613.345 724.553C609.083 728.816 604.024 732.198 598.456 734.505C592.888 736.812 586.92 738 580.893 738H412.894C406.867 738 400.899 736.812 395.331 734.505C389.763 732.198 384.704 728.816 380.442 724.553C376.18 720.29 372.8 715.229 370.493 709.659C368.187 704.088 367 698.118 367 692.089V256.911C367 250.882 368.187 244.912 370.493 239.341C372.8 233.771 376.18 228.71 380.442 224.447C384.704 220.184 389.763 216.802 395.331 214.495C400.899 212.187 406.867 211 412.894 211H580.893C586.92 211 592.888 212.187 598.456 214.495C604.024 216.802 609.083 220.184 613.345 224.447C617.607 228.71 620.987 233.771 623.294 239.341C625.6 244.912 626.787 250.882 626.787 256.911V336.235ZM617.42 691.491V257.523C617.419 248.444 613.797 239.736 607.349 233.316C600.901 226.896 592.157 223.289 583.038 223.288H561.037C562.048 225.758 562.434 228.438 562.16 231.091C561.887 233.744 560.962 236.29 559.467 238.503C557.973 240.717 555.955 242.531 553.59 243.785C551.226 245.039 548.589 245.694 545.91 245.694H449.346C446.667 245.694 444.029 245.038 441.665 243.785C439.301 242.531 437.283 240.717 435.788 238.503C434.294 236.29 433.369 233.744 433.095 231.091C432.821 228.438 433.207 225.758 434.218 223.288H413.67C404.552 223.289 395.807 226.896 389.359 233.316C382.912 239.737 379.289 248.444 379.288 257.523V691.491C379.287 700.573 382.908 709.283 389.356 715.705C395.804 722.128 404.55 725.737 413.67 725.738H583.038C592.159 725.737 600.905 722.128 607.353 715.705C613.8 709.283 617.422 700.573 617.42 691.491Z" fill="white"/>
<path d="M629.682 336.235H631.682V334.235H629.682V336.235ZM626.787 336.235H624.787V338.235H626.787V336.235ZM629.682 392.699V394.699H631.682V392.699H629.682ZM626.787 392.699V390.699H624.787V392.699H626.787ZM613.345 724.553L614.759 725.967L613.345 724.553ZM598.456 734.505L599.221 736.353H599.221L598.456 734.505ZM395.331 734.505L394.566 736.353H394.566L395.331 734.505ZM380.442 724.553L379.028 725.967H379.028L380.442 724.553ZM370.493 709.659L368.646 710.424H368.646L370.493 709.659ZM367 692.089H369H367ZM367 256.911H369V256.911L367 256.911ZM370.493 239.341L368.646 238.576L370.493 239.341ZM380.442 224.447L381.857 225.861V225.861L380.442 224.447ZM395.331 214.495L396.097 216.342L395.331 214.495ZM412.894 211L412.894 213H412.894V211ZM580.893 211V213V211ZM598.456 214.495L599.221 212.647V212.647L598.456 214.495ZM613.345 224.447L611.93 225.861L611.931 225.861L613.345 224.447ZM623.294 239.341L621.446 240.107V240.107L623.294 239.341ZM617.42 257.523H619.42V257.523L617.42 257.523ZM617.42 691.491H615.42V691.492L617.42 691.491ZM607.349 233.316L605.938 234.734L607.349 233.316ZM583.038 223.288L583.039 221.288H583.038V223.288ZM561.037 223.288V221.288H558.057L559.186 224.046L561.037 223.288ZM553.59 243.785L552.653 242.018L553.59 243.785ZM545.91 245.694L545.91 243.694H545.91V245.694ZM449.346 245.694V243.694H449.346L449.346 245.694ZM441.665 243.785L440.728 245.551H440.728L441.665 243.785ZM434.218 223.288L436.069 224.046L437.198 221.288H434.218V223.288ZM413.67 223.288V221.288H413.67L413.67 223.288ZM389.359 233.316L387.948 231.899L389.359 233.316ZM379.288 257.523L377.288 257.523V257.523H379.288ZM379.288 691.491L381.288 691.492V691.491H379.288ZM389.356 715.705L390.767 714.288H390.767L389.356 715.705ZM413.67 725.738L413.669 727.738H413.67V725.738ZM583.038 725.738V727.738H583.039L583.038 725.738ZM607.353 715.705L605.941 714.288L607.353 715.705ZM629.682 334.235H626.787V338.235H629.682V334.235ZM631.682 392.699V336.235H627.682V392.699H631.682ZM626.787 394.699H629.682V390.699H626.787V394.699ZM628.787 692.089V392.699H624.787V692.089H628.787ZM625.141 710.424C627.548 704.611 628.787 698.381 628.787 692.089H624.787C624.787 697.856 623.652 703.566 621.446 708.893L625.141 710.424ZM614.759 725.967C619.207 721.518 622.735 716.236 625.141 710.424L621.446 708.893C619.24 714.221 616.007 719.062 611.931 723.139L614.759 725.967ZM599.221 736.353C605.032 733.945 610.312 730.416 614.759 725.967L611.931 723.139C607.855 727.217 603.016 730.451 597.69 732.658L599.221 736.353ZM580.893 740C587.182 740 593.411 738.761 599.221 736.353L597.69 732.658C592.365 734.864 586.657 736 580.893 736V740ZM412.894 740H580.893V736H412.894V740ZM394.566 736.353C400.377 738.761 406.605 740 412.894 740V736C407.13 736 401.422 734.864 396.097 732.658L394.566 736.353ZM379.028 725.967C383.475 730.416 388.755 733.945 394.566 736.353L396.097 732.658C390.771 730.451 385.933 727.217 381.857 723.139L379.028 725.967ZM368.646 710.424C371.052 716.236 374.58 721.518 379.028 725.967L381.857 723.139C377.781 719.062 374.547 714.221 372.341 708.893L368.646 710.424ZM365 692.089C365 698.381 366.239 704.611 368.646 710.424L372.341 708.893C370.135 703.566 369 697.856 369 692.089H365ZM365 256.911V692.089H369V256.911H365ZM368.646 238.576C366.239 244.389 365 250.619 365 256.911L369 256.911C369 251.144 370.135 245.434 372.341 240.107L368.646 238.576ZM379.028 223.033C374.58 227.482 371.052 232.764 368.646 238.576L372.341 240.107C374.547 234.779 377.781 229.938 381.857 225.861L379.028 223.033ZM394.566 212.647C388.755 215.055 383.475 218.584 379.028 223.033L381.857 225.861C385.933 221.783 390.771 218.549 396.097 216.342L394.566 212.647ZM412.894 209C406.605 209 400.377 210.239 394.566 212.647L396.097 216.342C401.422 214.136 407.13 213 412.894 213L412.894 209ZM580.893 209H412.894V213H580.893V209ZM599.221 212.647C593.411 210.239 587.182 209 580.893 209V213C586.657 213 592.365 214.136 597.69 216.342L599.221 212.647ZM614.759 223.033C610.312 218.584 605.032 215.055 599.221 212.647L597.69 216.342C603.016 218.549 607.855 221.783 611.93 225.861L614.759 223.033ZM625.141 238.576C622.735 232.764 619.207 227.482 614.759 223.033L611.931 225.861C616.007 229.938 619.24 234.779 621.446 240.107L625.141 238.576ZM628.787 256.911C628.787 250.619 627.548 244.389 625.141 238.576L621.446 240.107C623.652 245.434 624.787 251.144 624.787 256.911H628.787ZM628.787 336.235V256.911H624.787V336.235H628.787ZM615.42 257.523V691.491H619.42V257.523H615.42ZM605.938 234.734C612.009 240.779 615.419 248.977 615.42 257.523L619.42 257.523C619.419 247.91 615.584 238.694 608.76 231.899L605.938 234.734ZM583.038 225.288C591.629 225.289 599.866 228.688 605.938 234.734L608.76 231.899C601.937 225.105 592.685 221.289 583.039 221.288L583.038 225.288ZM561.037 225.288H583.038V221.288H561.037V225.288ZM564.15 231.296C564.457 228.315 564.024 225.305 562.888 222.53L559.186 224.046C560.073 226.211 560.411 228.56 560.171 230.886L564.15 231.296ZM561.125 239.623C562.803 237.137 563.842 234.277 564.15 231.296L560.171 230.886C559.931 233.211 559.12 235.443 557.81 237.384L561.125 239.623ZM554.528 245.551C557.181 244.144 559.447 242.108 561.125 239.623L557.81 237.384C556.499 239.326 554.728 240.917 552.653 242.018L554.528 245.551ZM545.91 247.694C548.915 247.694 551.874 246.959 554.528 245.551L552.653 242.018C550.578 243.118 548.262 243.694 545.91 243.694L545.91 247.694ZM449.346 247.694H545.91V243.694H449.346V247.694ZM440.728 245.551C443.381 246.959 446.341 247.694 449.346 247.694L449.346 243.694C446.993 243.694 444.678 243.118 442.602 242.018L440.728 245.551ZM434.131 239.623C435.809 242.108 438.075 244.144 440.728 245.551L442.602 242.018C440.527 240.917 438.756 239.326 437.446 237.384L434.131 239.623ZM431.106 231.296C431.413 234.277 432.452 237.137 434.131 239.623L437.446 237.384C436.135 235.443 435.325 233.211 435.085 230.886L431.106 231.296ZM432.367 222.53C431.231 225.305 430.798 228.315 431.106 231.296L435.085 230.886C434.845 228.56 435.183 226.211 436.069 224.046L432.367 222.53ZM413.67 225.288H434.218V221.288H413.67V225.288ZM390.771 234.734C396.843 228.688 405.079 225.289 413.67 225.288L413.67 221.288C404.024 221.289 394.771 225.105 387.948 231.899L390.771 234.734ZM381.288 257.523C381.289 248.977 384.699 240.779 390.771 234.734L387.948 231.899C381.125 238.694 377.289 247.91 377.288 257.523L381.288 257.523ZM381.288 691.491V257.523H377.288V691.491H381.288ZM390.767 714.288C384.695 708.24 381.287 700.04 381.288 691.492L377.288 691.491C377.287 701.105 381.121 710.325 387.944 717.122L390.767 714.288ZM413.67 723.738C405.078 723.737 396.839 720.337 390.767 714.288L387.944 717.122C394.768 723.919 404.022 727.737 413.669 727.738L413.67 723.738ZM583.038 723.738H413.67V727.738H583.038V723.738ZM605.941 714.288C599.869 720.337 591.631 723.737 583.038 723.738L583.039 727.738C592.687 727.737 601.94 723.919 608.764 717.122L605.941 714.288ZM615.42 691.492C615.422 700.04 612.013 708.24 605.941 714.288L608.764 717.122C615.588 710.325 619.422 701.105 619.42 691.491L615.42 691.492Z" fill="#3030FF" mask="url(#path-17-inside-1)"/>
<rect x="431" y="486" width="134" height="14" fill="#3030FF" fill-opacity="0.2"/>
<rect x="439" y="514" width="118" height="14" fill="#3030FF" fill-opacity="0.2"/>
<rect x="460" y="542" width="77" height="14" fill="#3030FF" fill-opacity="0.2"/>
<circle opacity="0.2" cx="497.5" cy="343.5" r="49.5" fill="#3030FF"/>
<rect opacity="0.2" x="414" y="423" width="167" height="33" rx="16.5" fill="#3030FF"/>
</svg>
