<svg width="68" height="68" viewBox="0 0 68 68" fill="none" xmlns="http://www.w3.org/2000/svg">
<rect width="68" height="68" rx="20" fill="#D6D6FF"/>
<g opacity="0.8" clip-path="url(#clip0)">
<path d="M31.0393 32.8731H36.9601C37.5452 32.8731 38.0194 32.3988 38.0194 31.8137V28.2122C38.0194 25.9957 36.2162 24.1924 33.9997 24.1924C31.7832 24.1924 29.98 25.9957 29.98 28.2122V31.8137C29.98 32.3988 30.4542 32.8731 31.0393 32.8731ZM32.0987 28.2121C32.0987 27.1639 32.9515 26.3111 33.9997 26.3111C35.0479 26.3111 35.9007 27.1639 35.9007 28.2121V30.7543H32.0987V28.2121Z" fill="#3030FF"/>
<path d="M33.9999 23.4488C35.7661 23.4488 37.2029 22.0119 37.2029 20.2457C37.2029 18.4795 35.7661 17.0427 33.9999 17.0427C32.2338 17.0427 30.7969 18.4795 30.7969 20.2457C30.7969 22.0119 32.2338 23.4488 33.9999 23.4488ZM33.9999 19.1614C34.5978 19.1614 35.0842 19.6478 35.0842 20.2457C35.0842 20.8436 34.5978 21.3301 33.9999 21.3301C33.402 21.3301 32.9156 20.8436 32.9156 20.2457C32.9156 19.6478 33.402 19.1614 33.9999 19.1614Z" fill="#3030FF"/>
<path d="M21.0197 42.2768C18.8032 42.2768 17 44.08 17 46.2965V49.8981C17 50.4832 17.4743 50.9574 18.0594 50.9574H23.98C24.5651 50.9574 25.0394 50.4832 25.0394 49.8981V46.2965C25.0394 44.08 23.2362 42.2768 21.0197 42.2768ZM22.9207 48.8386H19.1187V46.2965C19.1187 45.2483 19.9715 44.3955 21.0197 44.3955C22.0679 44.3955 22.9207 45.2483 22.9207 46.2965V48.8386Z" fill="#3030FF"/>
<path d="M21.02 41.5331C22.7861 41.5331 24.223 40.0963 24.223 38.3301C24.223 36.5639 22.7861 35.127 21.02 35.127C19.2538 35.127 17.8169 36.5639 17.8169 38.3301C17.8169 40.0962 19.2538 41.5331 21.02 41.5331ZM21.02 37.2457C21.6179 37.2457 22.1043 37.7322 22.1043 38.3301C22.1043 38.928 21.6179 39.4144 21.02 39.4144C20.422 39.4144 19.9356 38.928 19.9356 38.3301C19.9356 37.7321 20.422 37.2457 21.02 37.2457Z" fill="#3030FF"/>
<path d="M46.9801 42.2768C44.7636 42.2768 42.9604 44.08 42.9604 46.2965V49.8981C42.9604 50.4832 43.4347 50.9574 44.0198 50.9574H49.9405C50.5256 50.9574 50.9999 50.4832 50.9999 49.8981V46.2965C50.9999 44.08 49.1966 42.2768 46.9801 42.2768ZM48.8811 48.8386H45.0792V46.2965C45.0792 45.2483 45.932 44.3955 46.9801 44.3955C48.0284 44.3955 48.8811 45.2483 48.8811 46.2965V48.8386Z" fill="#3030FF"/>
<path d="M46.9804 41.5331C48.7466 41.5331 50.1834 40.0963 50.1834 38.3301C50.1834 36.5639 48.7466 35.127 46.9804 35.127C45.2142 35.127 43.7773 36.5639 43.7773 38.3301C43.7773 40.0962 45.2142 41.5331 46.9804 41.5331ZM46.9804 37.2457C47.5783 37.2457 48.0647 37.7322 48.0647 38.3301C48.0647 38.928 47.5783 39.4144 46.9804 39.4144C46.3825 39.4144 45.896 38.928 45.896 38.3301C45.896 37.7321 46.3824 37.2457 46.9804 37.2457Z" fill="#3030FF"/>
<path d="M39.5882 44.0461L35.0591 41.1616V36.5605C35.0591 35.9754 34.5848 35.5012 33.9997 35.5012C33.4146 35.5012 32.9404 35.9754 32.9404 36.5605V41.1616L28.4113 44.0461C27.9163 44.3613 27.7734 45.0168 28.0869 45.5087C28.4011 46.0022 29.0559 46.1475 29.5494 45.8331L33.9998 42.9987C38.7462 46.0216 38.582 45.999 39.0182 45.999C40.0709 45.9991 40.4822 44.6155 39.5882 44.0461Z" fill="#3030FF"/>
</g>
<defs>
<clipPath id="clip0">
<rect width="34" height="34" fill="white" transform="translate(17 17)"/>
</clipPath>
</defs>
</svg>
