<svg width="68" height="68" viewBox="0 0 68 68" fill="none" xmlns="http://www.w3.org/2000/svg">
<rect width="68" height="68" rx="20" fill="#D6D6FF"/>
<g opacity="0.8">
<path d="M24.2866 35.0744H43.711C44.3004 35.0744 44.7783 34.5967 44.7783 34.0076V29.6673C44.7783 29.0782 44.3004 28.6005 43.711 28.6005H24.2866C23.6971 28.6005 23.2192 29.0782 23.2192 29.6673V34.0076C23.2192 34.5967 23.6971 35.0744 24.2866 35.0744ZM25.3539 30.7341H42.6437V32.9408H25.3539V30.7341Z" fill="#3030FF"/>
<path d="M24.2866 47.3113H31.5608C32.1502 47.3113 32.6281 46.8337 32.6281 46.2445V37.903C32.6281 37.3138 32.1502 36.8362 31.5608 36.8362H24.2866C23.6971 36.8362 23.2192 37.3138 23.2192 37.903V46.2445C23.2192 46.8338 23.6971 47.3113 24.2866 47.3113ZM25.3539 38.9698H30.4934V45.1777H25.3539V38.9698Z" fill="#3030FF"/>
<path d="M43.7112 36.8362H37.4165C36.827 36.8362 36.3491 37.3138 36.3491 37.903C36.3491 38.4921 36.827 38.9698 37.4165 38.9698H43.7112C44.3007 38.9698 44.7786 38.4921 44.7786 37.903C44.7786 37.3138 44.3007 36.8362 43.7112 36.8362Z" fill="#3030FF"/>
<path d="M43.7112 41.007H37.4165C36.827 41.007 36.3491 41.4847 36.3491 42.0738C36.3491 42.663 36.827 43.1406 37.4165 43.1406H43.7112C44.3007 43.1406 44.7786 42.663 44.7786 42.0738C44.7786 41.4847 44.3007 41.007 43.7112 41.007Z" fill="#3030FF"/>
<path d="M43.7112 45.1778H37.4165C36.827 45.1778 36.3491 45.6555 36.3491 46.2446C36.3491 46.8337 36.827 47.3114 37.4165 47.3114H43.7112C44.3007 47.3114 44.7786 46.8337 44.7786 46.2446C44.7786 45.6555 44.3007 45.1778 43.7112 45.1778Z" fill="#3030FF"/>
<path d="M49.9327 17H18.0673C17.4779 17 17 17.4777 17 18.0668V49.9332C17 50.5223 17.4779 51 18.0673 51H49.9327C50.5221 51 51 50.5223 51 49.9332V18.0668C51 17.4777 50.5221 17 49.9327 17ZM48.8653 48.8664H19.1347V26.9571H48.8653V48.8664ZM48.8653 24.8235H19.1347V19.1336H48.8653V24.8235Z" fill="#3030FF"/>
<path d="M33.6909 23.1282H45.2419C45.8313 23.1282 46.3092 22.6505 46.3092 22.0614C46.3092 21.4722 45.8313 20.9946 45.2419 20.9946H33.6909C33.1014 20.9946 32.6235 21.4722 32.6235 22.0614C32.6235 22.6505 33.1014 23.1282 33.6909 23.1282Z" fill="#3030FF"/>
<path d="M22.9525 23.1182C23.5365 23.1182 24.01 22.645 24.01 22.0613C24.01 21.4775 23.5365 21.0043 22.9525 21.0043C22.3685 21.0043 21.895 21.4775 21.895 22.0613C21.895 22.645 22.3685 23.1182 22.9525 23.1182Z" fill="#3030FF"/>
<path d="M26.4554 23.1182C27.0394 23.1182 27.5129 22.645 27.5129 22.0613C27.5129 21.4775 27.0394 21.0043 26.4554 21.0043C25.8714 21.0043 25.3979 21.4775 25.3979 22.0613C25.3979 22.645 25.8714 23.1182 26.4554 23.1182Z" fill="#3030FF"/>
<path d="M29.9588 23.1182C30.5429 23.1182 31.0163 22.645 31.0163 22.0613C31.0163 21.4775 30.5429 21.0043 29.9588 21.0043C29.3748 21.0043 28.9014 21.4775 28.9014 22.0613C28.9014 22.645 29.3748 23.1182 29.9588 23.1182Z" fill="#3030FF"/>
</g>
</svg>
