<svg width="68" height="68" viewBox="0 0 68 68" fill="none" xmlns="http://www.w3.org/2000/svg">
<rect width="68" height="68" rx="20" fill="#D6D6FF"/>
<g opacity="0.8">
<path d="M41.2672 17C39.4125 17 27.7463 17 25.7328 17C23.6745 17 22 18.5149 22 20.3769V47.623C22 49.4851 23.6745 51 25.7328 51H41.2672C43.3255 51 45 49.4851 45 47.623V20.3769C45 18.5149 43.3255 17 41.2672 17V17ZM37.2827 19.0623L36.9213 20.4981C36.891 20.6189 36.774 20.7033 36.6371 20.7033H30.3629C30.226 20.7033 30.1091 20.6189 30.0787 20.4981L29.7174 19.0623H37.2827ZM42.7203 47.623C42.7203 48.3479 42.0685 48.9377 41.2672 48.9377H25.7329C24.9316 48.9377 24.2798 48.3479 24.2798 47.623V20.3769C24.2798 19.652 24.9316 19.0623 25.7329 19.0623H27.3794L27.8559 20.9558C28.1241 22.0214 29.155 22.7656 30.363 22.7656H36.6372C37.8452 22.7656 38.8761 22.0214 39.1443 20.9558L39.6208 19.0623H41.2673C42.0686 19.0623 42.7205 19.652 42.7205 20.3769V47.623H42.7203Z" fill="#3030FF"/>
<path d="M39.8959 25.1688H27.1042C26.4746 25.1688 25.9644 25.6305 25.9644 26.1999V31.4708C25.9644 32.0403 26.4747 32.502 27.1042 32.502H39.8959C40.5255 32.502 41.0357 32.0403 41.0357 31.4708V26.1999C41.0358 25.6305 40.5255 25.1688 39.8959 25.1688ZM38.7561 30.4397H28.244V27.2311H38.7561V30.4397Z" fill="#3030FF"/>
<path d="M32.7254 34.0798H27.1042C26.4746 34.0798 25.9644 34.5415 25.9644 35.111V44.8389C25.9644 45.4084 26.4747 45.8701 27.1042 45.8701H32.7254C33.3549 45.8701 33.8652 45.4084 33.8652 44.8389V35.111C33.8652 34.5415 33.3549 34.0798 32.7254 34.0798ZM31.5855 43.8078H28.244V36.1421H31.5855V43.8078Z" fill="#3030FF"/>
<path d="M39.8959 34.0798H37.0295C36.3999 34.0798 35.8896 34.5415 35.8896 35.111C35.8896 35.6804 36.4 36.1421 37.0295 36.1421H39.8959C40.5254 36.1421 41.0357 35.6804 41.0357 35.111C41.0357 34.5415 40.5254 34.0798 39.8959 34.0798Z" fill="#3030FF"/>
<path d="M39.8959 38.9438H37.0295C36.3999 38.9438 35.8896 39.4055 35.8896 39.9749C35.8896 40.5443 36.4 41.006 37.0295 41.006H39.8959C40.5254 41.006 41.0357 40.5443 41.0357 39.9749C41.0357 39.4055 40.5254 38.9438 39.8959 38.9438Z" fill="#3030FF"/>
<path d="M39.8959 43.8077H37.0295C36.3999 43.8077 35.8896 44.2694 35.8896 44.8389C35.8896 45.4083 36.4 45.87 37.0295 45.87H39.8959C40.5254 45.87 41.0357 45.4083 41.0357 44.8389C41.0357 44.2694 40.5254 43.8077 39.8959 43.8077Z" fill="#3030FF"/>
</g>
</svg>
