<svg width="400" height="400" viewBox="0 0 400 400" fill="none" xmlns="http://www.w3.org/2000/svg">
<path d="M90.355 357.265C169.168 357.265 223.289 398 261.265 398C299.242 398 379 376.217 379 201.899C379 27.5799 271.702 1.99997 229.932 1.99997C34.3306 1.98862 -49.2219 357.265 90.355 357.265Z" fill="#3030FF" fill-opacity="0.1"/>
<path d="M144.447 159.049C140.361 159.049 114.659 159.049 110.224 159.049C105.689 159.049 102 163.024 102 167.91L102 239.398C102 244.284 105.689 248.258 110.224 248.258H144.447C148.982 248.258 152.671 244.284 152.671 239.398V167.91C152.671 163.024 148.982 159.049 144.447 159.049V159.049ZM135.669 164.46L134.873 168.228C134.806 168.544 134.548 168.766 134.247 168.766H120.424C120.122 168.766 119.865 168.544 119.798 168.228L119.002 164.46H135.669ZM147.648 239.398C147.648 241.3 146.212 242.847 144.447 242.847H110.224C108.458 242.847 107.022 241.3 107.022 239.398L107.022 167.91C107.022 166.008 108.458 164.46 110.224 164.46H113.851L114.901 169.429C115.492 172.224 117.763 174.177 120.424 174.177H134.247C136.908 174.177 139.179 172.224 139.77 169.429L140.82 164.46H144.447C146.213 164.46 147.649 166.008 147.649 167.91V239.398H147.648Z" fill="#3030FF"/>
<path d="M136.651 188.504L132.902 187.949L131.26 184.574C129.684 181.274 125.074 181.151 123.395 184.574L121.753 187.949L118.013 188.503C114.302 189.037 112.954 193.833 115.615 196.445L118.236 199.03L117.636 202.601C116.984 206.352 120.707 209.264 123.961 207.556L127.366 205.744L130.784 207.562C134.022 209.261 137.748 206.351 137.096 202.601L136.494 199.014L139.043 196.442C141.796 193.754 140.242 189.021 136.651 188.504ZM132.263 195.869C131.499 196.64 131.176 197.72 131.353 198.795L131.913 202.129L128.724 200.432C127.883 199.988 126.905 199.979 126.056 200.408C125.747 200.561 126.897 199.959 122.819 202.129L123.38 198.788C123.558 197.714 123.217 196.623 122.468 195.868C122.285 195.682 123.114 196.505 120.209 193.639L123.441 193.161C124.42 193.02 125.248 192.402 125.712 191.466C125.843 191.199 125.259 192.397 127.327 188.146C129.533 192.678 128.784 191.14 128.944 191.468C129.408 192.403 130.235 193.02 131.205 193.16L134.47 193.643L132.263 195.869ZM135.695 199.82C135.697 199.818 135.697 199.818 135.698 199.816C135.697 199.818 135.696 199.819 135.695 199.82Z" fill="#3030FF"/>
<path d="M129.074 211.368C128.103 210.363 126.569 210.363 125.597 211.368L115.467 221.841C113.838 223.525 114.948 226.499 117.206 226.499H118.695V231.776C118.695 233.27 119.819 234.482 121.206 234.482H133.465C134.852 234.482 135.976 233.27 135.976 231.776V226.499H137.466C139.723 226.499 140.834 223.525 139.205 221.841L129.074 211.368ZM130.954 223.794V229.071H123.717V223.794C123.717 222.966 123.372 222.225 122.829 221.729L127.336 217.07L131.842 221.729C131.299 222.225 130.954 222.966 130.954 223.794Z" fill="#3030FF"/>
<path d="M191.313 204.082H268.162C270.494 204.082 272.384 202.045 272.384 199.532V181.022C272.384 178.51 270.494 176.473 268.162 176.473H191.313C188.981 176.473 187.09 178.51 187.09 181.022V199.532C187.09 202.045 188.98 204.082 191.313 204.082ZM195.535 185.572H263.939V194.983H195.535V185.572Z" fill="#3030FF"/>
<path d="M191.313 256.269H220.092C222.424 256.269 224.314 254.232 224.314 251.719V216.145C224.314 213.633 222.424 211.595 220.092 211.595H191.313C188.981 211.595 187.09 213.633 187.09 216.145V251.719C187.09 254.232 188.98 256.269 191.313 256.269ZM195.535 220.695H215.869V247.17H195.535V220.695Z" fill="#3030FF"/>
<path d="M268.161 211.596H243.257C240.925 211.596 239.035 213.633 239.035 216.145C239.035 218.658 240.925 220.695 243.257 220.695H268.161C270.493 220.695 272.384 218.658 272.384 216.145C272.384 213.633 270.493 211.596 268.161 211.596Z" fill="#3030FF"/>
<path d="M268.161 229.383H243.257C240.925 229.383 239.035 231.42 239.035 233.933C239.035 236.445 240.925 238.482 243.257 238.482H268.161C270.493 238.482 272.384 236.445 272.384 233.933C272.384 231.42 270.493 229.383 268.161 229.383Z" fill="#3030FF"/>
<path d="M268.162 247.17H243.258C240.926 247.17 239.035 249.207 239.035 251.719C239.035 254.232 240.926 256.269 243.258 256.269H268.162C270.494 256.269 272.385 254.232 272.385 251.719C272.385 249.207 270.494 247.17 268.162 247.17Z" fill="#3030FF"/>
<path d="M292.777 127L166.708 127C164.376 127 162.485 129.037 162.485 131.55V267.45C162.485 269.963 164.376 272 166.708 272H292.777C295.109 272 297 269.963 297 267.45V131.55C297 129.037 295.109 127 292.777 127ZM288.555 262.901H170.931V169.464H288.555V262.901ZM288.555 160.365H170.931V136.099H288.555V160.365Z" fill="#3030FF"/>
<path d="M228.519 153.135H274.219C276.551 153.135 278.441 151.098 278.441 148.585C278.441 146.073 276.551 144.036 274.219 144.036H228.519C226.187 144.036 224.296 146.073 224.296 148.585C224.296 151.098 226.187 153.135 228.519 153.135Z" fill="#3030FF"/>
<path d="M186.035 153.092C188.345 153.092 190.218 151.074 190.218 148.585C190.218 146.095 188.345 144.077 186.035 144.077C183.724 144.077 181.851 146.095 181.851 148.585C181.851 151.074 183.724 153.092 186.035 153.092Z" fill="#3030FF"/>
<path d="M199.895 153.092C202.205 153.092 204.078 151.074 204.078 148.585C204.078 146.095 202.205 144.077 199.895 144.077C197.584 144.077 195.711 146.095 195.711 148.585C195.711 151.074 197.584 153.092 199.895 153.092Z" fill="#3030FF"/>
<path d="M213.754 153.092C216.065 153.092 217.938 151.074 217.938 148.585C217.938 146.095 216.065 144.077 213.754 144.077C211.444 144.077 209.571 146.095 209.571 148.585C209.571 151.074 211.444 153.092 213.754 153.092Z" fill="#3030FF"/>
</svg>
