<svg width="400" height="400" viewBox="0 0 400 400" fill="none" xmlns="http://www.w3.org/2000/svg">
<path d="M42.7346 90.355C42.7346 169.168 2 223.289 2 261.265C2 299.242 23.7827 379 198.101 379C372.42 379 398 271.702 398 229.932C398.011 34.3306 42.7346 -49.2219 42.7346 90.355Z" fill="#3030FF" fill-opacity="0.1"/>
<path d="M281.75 135.5C272.788 135.5 265.5 128.212 265.5 119.25C265.5 110.288 272.788 103 281.75 103C290.712 103 298 110.288 298 119.25C298 128.212 290.712 135.5 281.75 135.5ZM281.75 115.188C279.516 115.188 277.688 117.007 277.688 119.25C277.688 121.493 279.516 123.312 281.75 123.312C283.984 123.312 285.812 121.493 285.812 119.25C285.812 117.007 283.984 115.188 281.75 115.188Z" fill="#3030FF"/>
<path d="M281.75 200.5C272.788 200.5 265.5 193.212 265.5 184.25C265.5 175.288 272.788 168 281.75 168C290.712 168 298 175.288 298 184.25C298 193.212 290.712 200.5 281.75 200.5ZM281.75 180.188C279.516 180.188 277.688 182.007 277.688 184.25C277.688 186.493 279.516 188.312 281.75 188.312C283.984 188.312 285.812 186.493 285.812 184.25C285.812 182.007 283.984 180.188 281.75 180.188Z" fill="#3030FF"/>
<path d="M224.875 168C215.913 168 208.625 160.712 208.625 151.75C208.625 142.788 215.913 135.5 224.875 135.5C233.837 135.5 241.125 142.788 241.125 151.75C241.125 160.712 233.837 168 224.875 168ZM224.875 147.687C222.641 147.687 220.812 149.507 220.812 151.75C220.812 153.992 222.641 155.812 224.875 155.812C227.109 155.812 228.938 153.992 228.938 151.75C228.938 149.507 227.109 147.687 224.875 147.687Z" fill="#3030FF"/>
<path d="M271.261 184.331C270.237 184.331 269.205 184.071 268.254 183.527L232.342 163.052C229.417 161.386 228.401 157.665 230.067 154.74C231.724 151.807 235.454 150.791 238.371 152.465L274.283 172.94C277.208 174.606 278.224 178.327 276.558 181.252C275.445 183.226 273.381 184.331 271.261 184.331Z" fill="#3030FF"/>
<path d="M235.364 151.831C233.244 151.831 231.18 150.726 230.067 148.76C228.401 145.835 229.417 142.114 232.342 140.448L268.254 119.973C271.163 118.299 274.893 119.315 276.558 122.248C278.224 125.173 277.208 128.894 274.283 130.56L238.371 151.035C237.42 151.571 236.388 151.831 235.364 151.831Z" fill="#3030FF"/>
<path d="M275.656 298H125.344C113.018 298 103 287.982 103 275.656V141.594C103 129.268 113.018 119.25 125.344 119.25H202.775C206.139 119.25 208.869 121.98 208.869 125.344C208.869 128.707 206.139 131.437 202.775 131.437H125.344C119.746 131.437 115.188 135.996 115.188 141.594V275.656C115.188 281.254 119.746 285.812 125.344 285.812H275.656C281.254 285.812 285.812 281.254 285.812 275.656V217.237C285.812 213.874 288.542 211.144 291.906 211.144C295.27 211.144 298 213.874 298 217.237V275.656C298 287.982 287.982 298 275.656 298Z" fill="#3030FF"/>
<path d="M190.425 159.875H109.094C105.73 159.875 103 157.145 103 153.781C103 150.418 105.73 147.688 109.094 147.688H190.425C193.789 147.688 196.519 150.418 196.519 153.781C196.519 157.145 193.789 159.875 190.425 159.875Z" fill="#3030FF"/>
<path d="M214.719 261.438C213.313 261.438 211.899 260.95 210.754 259.967C208.202 257.773 207.902 253.93 210.095 251.371L218.879 241.125L210.095 230.871C207.902 228.32 208.202 224.469 210.754 222.275C213.305 220.089 217.156 220.382 219.35 222.933L231.537 237.152C233.495 239.435 233.495 242.799 231.537 245.09L219.35 259.309C218.139 260.714 216.433 261.438 214.719 261.438Z" fill="#3030FF"/>
<path d="M161.906 261.438C160.192 261.438 158.486 260.714 157.283 259.309L145.096 245.09C143.137 242.807 143.137 239.443 145.096 237.152L157.283 222.933C159.477 220.382 163.32 220.089 165.879 222.275C168.431 224.469 168.731 228.312 166.537 230.871L157.746 241.125L166.529 251.379C168.723 253.93 168.422 257.781 165.871 259.975C164.726 260.95 163.312 261.438 161.906 261.438Z" fill="#3030FF"/>
<path d="M182.227 273.625C181.764 273.625 181.309 273.576 180.846 273.462C177.571 272.707 175.524 269.441 176.279 266.158L188.467 213.346C189.231 210.063 192.546 208.007 195.771 208.779C199.046 209.535 201.093 212.801 200.338 216.084L188.15 268.896C187.5 271.724 184.998 273.625 182.227 273.625Z" fill="#3030FF"/>
</svg>
