<svg width="158" height="40" viewBox="0 0 158 40" fill="none" xmlns="http://www.w3.org/2000/svg">
<path fill-rule="evenodd" clip-rule="evenodd" d="M12.3211 26.4062C10.8721 24.6711 10 22.4374 10 20C10 17.5627 10.872 15.329 12.3211 13.5939L5.23568 6.50853C1.98378 10.0653 0 14.801 0 20C0 25.1991 1.9838 29.9348 5.23573 33.4915L12.3211 26.4062ZM6.50852 34.7643C10.0652 38.0162 14.801 40 20 40C25.199 40 29.9348 38.0162 33.4915 34.7643L26.4061 27.679C24.6711 29.128 22.4374 30 20 30C17.5627 30 15.329 29.128 13.5939 27.6789L6.50852 34.7643ZM27.6789 26.4062L34.7643 33.4915C38.0162 29.9348 40 25.1991 40 20C40 14.801 38.0162 10.0653 34.7643 6.50853L27.679 13.5939C29.128 15.3289 30 17.5626 30 20C30 22.4374 29.128 24.6711 27.6789 26.4062ZM13.5938 12.3211C15.3289 10.872 17.5627 10 20 10C22.4374 10 24.6711 10.872 26.4062 12.3211L33.4915 5.23573C29.9348 1.9838 25.1991 0 20 0C14.8009 0 10.0652 1.9838 6.50847 5.23573L13.5938 12.3211Z" fill="#3030FF"/>
<path d="M62.4316 22.2637C62.321 23.7936 61.7546 24.998 60.7324 25.877C59.7168 26.7559 58.3757 27.1953 56.709 27.1953C54.8861 27.1953 53.4505 26.5833 52.4023 25.3594C51.3607 24.1289 50.8398 22.4427 50.8398 20.3008V19.4316C50.8398 18.0645 51.0807 16.86 51.5625 15.8184C52.0443 14.7767 52.7311 13.9792 53.623 13.4258C54.5215 12.8659 55.5632 12.5859 56.748 12.5859C58.3887 12.5859 59.7103 13.0254 60.7129 13.9043C61.7155 14.7832 62.2949 16.0169 62.4512 17.6055H59.5215C59.4499 16.6875 59.1927 16.0234 58.75 15.6133C58.3138 15.1966 57.6465 14.9883 56.748 14.9883C55.7715 14.9883 55.0391 15.3398 54.5508 16.043C54.069 16.7396 53.8216 17.8236 53.8086 19.2949V20.3691C53.8086 21.9056 54.0397 23.0286 54.502 23.7383C54.9707 24.4479 55.7064 24.8027 56.709 24.8027C57.6139 24.8027 58.2878 24.5977 58.7305 24.1875C59.1797 23.7708 59.4368 23.1296 59.502 22.2637H62.4316ZM76.0352 20.2129C76.0352 21.6126 75.7878 22.8398 75.293 23.8945C74.7982 24.9492 74.0885 25.763 73.1641 26.3359C72.2461 26.9089 71.1914 27.1953 70 27.1953C68.8216 27.1953 67.7702 26.9121 66.8457 26.3457C65.9212 25.7793 65.2051 24.972 64.6973 23.9238C64.1895 22.8691 63.9323 21.6582 63.9258 20.291V19.5879C63.9258 18.1882 64.1764 16.9577 64.6777 15.8965C65.1855 14.8288 65.8984 14.0117 66.8164 13.4453C67.7409 12.8724 68.7956 12.5859 69.9805 12.5859C71.1654 12.5859 72.2168 12.8724 73.1348 13.4453C74.0592 14.0117 74.7721 14.8288 75.2734 15.8965C75.7812 16.9577 76.0352 18.1849 76.0352 19.5781V20.2129ZM73.0664 19.5684C73.0664 18.0775 72.7995 16.9447 72.2656 16.1699C71.7318 15.3952 70.9701 15.0078 69.9805 15.0078C68.9974 15.0078 68.2389 15.3919 67.7051 16.1602C67.1712 16.9219 66.901 18.0417 66.8945 19.5195V20.2129C66.8945 21.6647 67.1615 22.791 67.6953 23.5918C68.2292 24.3926 68.9974 24.793 70 24.793C70.9831 24.793 71.7383 24.4089 72.2656 23.6406C72.793 22.8659 73.0599 21.7396 73.0664 20.2617V19.5684ZM89.8438 20.2129C89.8438 21.6126 89.5964 22.8398 89.1016 23.8945C88.6068 24.9492 87.8971 25.763 86.9727 26.3359C86.0547 26.9089 85 27.1953 83.8086 27.1953C82.6302 27.1953 81.5788 26.9121 80.6543 26.3457C79.7298 25.7793 79.0137 24.972 78.5059 23.9238C77.998 22.8691 77.7409 21.6582 77.7344 20.291V19.5879C77.7344 18.1882 77.985 16.9577 78.4863 15.8965C78.9941 14.8288 79.707 14.0117 80.625 13.4453C81.5495 12.8724 82.6042 12.5859 83.7891 12.5859C84.974 12.5859 86.0254 12.8724 86.9434 13.4453C87.8678 14.0117 88.5807 14.8288 89.082 15.8965C89.5898 16.9577 89.8438 18.1849 89.8438 19.5781V20.2129ZM86.875 19.5684C86.875 18.0775 86.6081 16.9447 86.0742 16.1699C85.5404 15.3952 84.7786 15.0078 83.7891 15.0078C82.806 15.0078 82.0475 15.3919 81.5137 16.1602C80.9798 16.9219 80.7096 18.0417 80.7031 19.5195V20.2129C80.7031 21.6647 80.9701 22.791 81.5039 23.5918C82.0378 24.3926 82.806 24.793 83.8086 24.793C84.7917 24.793 85.5469 24.4089 86.0742 23.6406C86.6016 22.8659 86.8685 21.7396 86.875 20.2617V19.5684ZM94.9023 24.6465H101.123V27H91.9727V12.7812H94.9023V24.6465ZM111.621 12.7812L115.273 23.0938L118.906 12.7812H122.754V27H119.814V23.1133L120.107 16.4043L116.27 27H114.258L110.43 16.4141L110.723 23.1133V27H107.793V12.7812H111.621ZM128.428 27H125.498V12.7812H128.428V27ZM142.715 27H139.785L134.082 17.6445V27H131.152V12.7812H134.082L139.795 22.1562V12.7812H142.715V27ZM145.273 27V12.7812H149.648C150.898 12.7812 152.015 13.0645 152.998 13.6309C153.988 14.1908 154.759 14.9915 155.312 16.0332C155.866 17.0684 156.143 18.2467 156.143 19.5684V20.2227C156.143 21.5443 155.869 22.7194 155.322 23.748C154.782 24.7767 154.017 25.5742 153.027 26.1406C152.038 26.707 150.921 26.9935 149.678 27H145.273ZM148.203 15.1543V24.6465H149.619C150.765 24.6465 151.641 24.2721 152.246 23.5234C152.852 22.7747 153.161 21.7038 153.174 20.3105V19.5586C153.174 18.1133 152.874 17.0195 152.275 16.2773C151.676 15.5286 150.801 15.1543 149.648 15.1543H148.203Z" fill="#272727"/>
</svg>
